Coordinates
version=1
nRows=19
nColumns=24
inDegrees=yes

Units are S.I. units (second, meters, Newtons, ...)
Angles are in degrees.

endheader
time	pelvis_tilt	pelvis_list	pelvis_rotation	pelvis_tx	pelvis_ty	pelvis_tz	hip_flexion_r	hip_adduction_r	hip_rotation_r	knee_angle_r	ankle_angle_r	subtalar_angle_r	mtp_angle_r	hip_flexion_l	hip_adduction_l	hip_rotation_l	knee_angle_l	ankle_angle_l	subtalar_angle_l	mtp_angle_l	lumbar_extension	lumbar_bending	lumbar_rotation
      4.23500000	     17.73327043	      1.09211951	      3.37437933	      0.27960061	      0.97196974	      0.07818103	    -18.56601808	      1.64040621	      0.72468089	      0.06794562	     12.54178954	     -1.54659219	     29.06933259	     -7.67241217	    -10.59321868	    -13.52475407	    -52.64869814	      4.71962757	      2.09446851	     35.76889001	    -25.34713369	      5.10583969	     -1.81603649
      4.24000000	     17.58883516	      1.15687861	      3.35023126	      0.28359609	      0.97186102	      0.07848212	    -18.74544712	      1.59099136	      0.65758983	      0.20572379	     12.73697400	     -1.45618181	     29.06672155	     -7.01056473	    -10.50570691	    -13.67317411	    -52.31590605	      5.29484063	      2.53011553	     35.82057559	    -25.27231059	      5.03561700	     -1.71968753
      4.24500000	     17.43024871	      1.18759915	      3.33036977	      0.28756658	      0.97168917	      0.07875522	    -18.89507666	      1.57469871	      0.59892058	      0.32292856	     12.93857037	     -1.32703791	     29.04283382	     -6.33655511	    -10.44171080	    -13.82593977	    -51.93719091	      5.87618995	      2.94859225	     35.84476581	    -25.18475033	      5.00302044	     -1.60373311
      4.25000000	     17.27100280	      1.21218157	      3.30233727	      0.29153535	      0.97149558	      0.07901239	    -19.03678280	      1.55931468	      0.54336323	      0.42825721	     13.15195258	     -1.18136784	     28.99472648	     -5.68009490	    -10.36553595	    -13.98877632	    -51.48673595	      6.42694428	      3.31288990	     35.83667828	    -25.09655271	      4.97352820	     -1.47242738
      4.25500000	     17.12021992	      1.23328988	      3.26709517	      0.29550723	      0.97128619	      0.07925821	    -19.17905277	      1.54444349	      0.49158648	      0.51568625	     13.37835728	     -1.02632395	     28.92435697	     -5.05344758	    -10.27887445	    -14.16859212	    -50.96352502	      6.95240640	      3.63992680	     35.80162677	    -25.01720610	      4.94520145	     -1.33150960
      4.26000000	     16.97581162	      1.21929415	      3.23683618	      0.29945100	      0.97105288	      0.07946909	    -19.30826682	      1.56515016	      0.40523747	      0.56993661	     13.61636575	     -0.76196975	     28.72116147	     -4.43933097	    -10.21577592	    -14.34059971	    -50.39143454	      7.48556684	      3.94034663	     35.63961668	    -24.94824163	      4.95727252	     -1.14833473
      4.26500000	     16.84694713	      1.26492799	      3.17785852	      0.30342427	      0.97084902	      0.07969559	    -19.46617930	      1.51504173	      0.39062910	      0.63916359	     13.87810630	     -0.65614570	     28.60672740	     -3.88899789	    -10.06607183	    -14.55084806	    -49.70063899	      7.91463467	      4.15245116	     35.55367139	    -24.89702716	      4.89420645	     -1.01707304
      4.27000000	     16.74335455	      1.29138259	      3.12932924	      0.30740186	      0.97065991	      0.07983756	    -19.61637319	      1.48136508	      0.23425186	      0.61692548	     14.35331448	     -0.04552298	     26.50435776	     -3.37891282	     -9.91569484	    -14.73911916	    -48.96074245	      8.43947221	      4.36528255	     33.81139975	    -24.87066417	      4.86210917	     -0.84785952
      4.27500000	     16.63468034	      1.29846744	      3.09862714	      0.31133199	      0.97043838	      0.08000313	    -19.78469991	      1.48089920	      0.24721602	      0.67155393	     14.52723467	     -0.05791881	     26.49689355	     -2.86911761	     -9.78056240	    -14.90616961	    -48.15164769	      8.87465767	      4.48101068	     33.82696540	    -24.84368236	      4.84751150	     -0.70971647
      4.28000000	     16.52367433	      1.29581804	      3.00678939	      0.31528621	      0.97019676	      0.08024152	    -19.92652933	      1.46846227	      0.29878950	      0.68334077	     14.79507844	      0.03606395	     26.45233522	     -2.39616592	     -9.65728775	    -15.17124351	    -47.27570722	      9.23194839	      4.71674150	     33.80576754	    -24.81505259	      4.82079266	     -0.48809919
      4.28500000	     16.42148258	      1.30133637	      2.95701113	      0.31920036	      0.96995785	      0.08036427	    -20.07978754	      1.45586754	      0.33514447	      0.69777419	     14.99091447	      0.08597515	     26.42066245	     -1.93868905	     -9.49411140	    -15.35530419	    -46.32573476	      9.60234974	      4.79462975	     33.78960751	    -24.79891782	      4.80390255	     -0.33634330
      4.29000000	     16.37518378	      1.31187404	      2.84910935	      0.32315768	      0.96979560	      0.08057486	    -20.26842046	      1.42463619	      0.36050338	      0.65659500	     15.28005018	      0.26618627	     26.25672160	     -1.59763669	     -9.33118819	    -15.64106690	    -45.28219972	      9.89489395	      4.98169490	     33.67811688	    -24.84317588	      4.75869978	     -0.08556346
      4.29500000	     16.26742238	      1.33368859	      2.79622983	      0.32709686	      0.96952688	      0.08066405	    -20.41077752	      1.39037660	      0.43422890	      0.65438542	     15.52667105	      0.28463806	     26.18809551	     -1.17939698	     -9.13020337	    -15.83456103	    -44.20224664	     10.19940564	      5.07439501	     33.63713327	    -24.81747170	      4.72002935	      0.04342507
      4.30000000	     16.23585058	      1.35042168	      2.68052437	      0.33101930	      0.96937992	      0.08084758	    -20.60669416	      1.34638014	      0.52786241	      0.60098165	     15.80635377	      0.38547882	     25.98660760	     -0.90242277	     -8.93520713	    -16.11316572	    -43.01248037	     10.41821686	      5.26977051	     33.51904728	    -24.88261501	      4.66314250	      0.30611715
      4.30500000	     16.18450596	      1.39401153	      2.61440817	      0.33497996	      0.96920075	      0.08087518	    -20.76958362	      1.28252523	      0.48389141	      0.48487191	     16.34153135	      0.83564122	     23.32923635	     -0.61509310	     -8.68672236	    -16.32829365	    -41.77187002	     10.73788350	      5.45891806	     32.15023871	    -24.91792218	      4.60307095	      0.44418669
      4.31000000	     16.11207133	      1.39721914	      2.51833751	      0.33886850	      0.96896157	      0.08099972	    -20.91230637	      1.25386155	      0.66110012	      0.41990058	     16.58495793	      0.75600195	     23.30559458	     -0.31884488	     -8.49199438	    -16.58787101	    -40.48822023	     10.95587251	      5.75062633	     32.15613771	    -24.94030184	      4.56447995	      0.63791371
      4.31500000	     16.05375768	      1.41478294	      2.41788743	      0.34277307	      0.96873980	      0.08109905	    -21.06750975	      1.20608574	      0.82055152	      0.34536093	     16.83211118	      0.71627008	     23.26529578	     -0.07174032	     -8.27001423	    -16.85410713	    -39.12458772	     11.14368583	      6.03143599	     32.15401362	    -24.97715829	      4.50751677	      0.81768883
      4.32000000	     16.04321375	      1.44012793	      2.29526489	      0.34672300	      0.96859429	      0.08122078	    -21.27159337	      1.14768839	      0.94933230	      0.26113161	     17.05872652	      0.70524909	     23.15647361	      0.07393009	     -8.03775122	    -17.17269839	    -37.66937878	     11.31795156	      6.38990569	     32.14300015	    -25.06197987	      4.43459184	      1.03998488
      4.32500000	     16.01512210	      1.46369281	      2.18241097	      0.35063872	      0.96839591	      0.08130568	    -21.44578776	      1.08919614	      1.09474797	      0.15731372	     17.32356532	      0.70960185	     23.02115096	      0.22671868	     -7.79861490	    -17.47114532	    -36.17074253	     11.46650671	      6.80078218	     32.13580152	    -25.13130631	      4.36482727	      1.22239080
